# xmcd
#
# Track frame offsets: 
#        183
#        16310
#        30798
#        47280
#        62230
#        76483
#        92640
#        107570
#        122108
#        139723
#        154408
#        170033
#        187108
#        200783
#
# Disc length: 2893 seconds
#
# Revision: 6
# Processed by: cddbd v1.5.2PL0 Copyright (c) Steve Scherf et al.
# Submitted via: ExactAudioCopyFreeDBPlugin 1.0
#
DISCID=ba0b4b0e
DTITLE=Flippers - Unsere Lieder
DYEAR=1994
DGENRE=Schlager
TTITLE0=Ein Herz auf Reisen (Potpourri)
TTITLE1=Hab ich Dich verloren (Version 1994)
TTITLE2=Bleib mir treu, ich komm wieder (Version 1994)
TTITLE3=Mama Lucia
TTITLE4=Ein Traum fliegt zu Dir (Potpourri)
TTITLE5=Wellen, Wind und schöne Mädchen (Potpourri)
TTITLE6=Sag einfach, ich liebe Dich (Potpourri)
TTITLE7=Laß mein Herz nie mehr weinen
TTITLE8=Heut ist die Nacht der tausend Rosen (Version 1994)
TTITLE9=Sommer, Sonne, Zärtlichkeit (Potpourri)
TTITLE10=Rosen der Liebe
TTITLE11=Sehnsucht nach Dir (Potpourri)
TTITLE12=Ich bin so allein (Version 1994)
TTITLE13=Schöne Jahre
EXTD=YEAR: 1994
EXTT0=
EXTT1=
EXTT2=
EXTT3=
EXTT4=
EXTT5=
EXTT6=
EXTT7=
EXTT8=
EXTT9=
EXTT10=
EXTT11=
EXTT12=
EXTT13=
PLAYORDER=
